<?xml version="1.0" encoding="us-ascii" standalone="no"?><svg xmlns="http://www.w3.org/2000/svg" xmlns:xlink="http://www.w3.org/1999/xlink" contentStyleType="text/css" height="435px" preserveAspectRatio="none" style="width:400px;height:435px;background:#FFFFFF;" version="1.1" viewBox="0 0 400 435" width="400px" zoomAndPan="magnify"><defs/><g><rect fill="#DDDDDD" height="423.2305" style="stroke:#181818;stroke-width:0.5;" width="393" x="1" y="6"/><rect fill="#FFFFFF" height="306.6973" style="stroke:#181818;stroke-width:1.0;" width="10" x="50" y="76.9121"/><rect fill="#FFFFFF" height="33.6211" style="stroke:#181818;stroke-width:1.0;" width="10" x="184.5" y="100.9121"/><rect fill="#FFFFFF" height="177.4941" style="stroke:#181818;stroke-width:1.0;" width="10" x="184.5" y="165.8242"/><rect fill="#FFFFFF" height="25" style="stroke:#181818;stroke-width:1.0;" width="10" x="189.5" y="205.1152"/><rect fill="#FFFFFF" height="50.9121" style="stroke:#181818;stroke-width:1.0;" width="10" x="331.5" y="261.1152"/><line style="stroke:#181818;stroke-width:0.5;stroke-dasharray:5.0,5.0;" x1="55" x2="55" y1="43.6211" y2="392.6094"/><line style="stroke:#181818;stroke-width:0.5;stroke-dasharray:5.0,5.0;" x1="189" x2="189" y1="116.7227" y2="392.6094"/><line style="stroke:#181818;stroke-width:0.5;stroke-dasharray:5.0,5.0;" x1="336" x2="336" y1="276.9258" y2="392.6094"/><rect fill="#E2E2F0" height="32.6211" rx="2.5" ry="2.5" style="stroke:#181818;stroke-width:0.5;" width="100" x="5" y="10"/><text fill="#000000" font-family="sans-serif" font-size="14" lengthAdjust="spacing" textLength="86" x="12" y="32.1074">:EntryHandler</text><rect fill="#E2E2F0" height="32.6211" rx="2.5" ry="2.5" style="stroke:#181818;stroke-width:0.5;" width="100" x="5" y="391.6094"/><text fill="#000000" font-family="sans-serif" font-size="14" lengthAdjust="spacing" textLength="86" x="12" y="413.7168">:EntryHandler</text><rect fill="#E2E2F0" height="32.6211" rx="2.5" ry="2.5" style="stroke:#181818;stroke-width:0.5;" width="149" x="115" y="391.6094"/><text fill="#000000" font-family="sans-serif" font-size="14" lengthAdjust="spacing" textLength="135" x="122" y="413.7168">:AddCommandParser</text><rect fill="#E2E2F0" height="32.6211" rx="2.5" ry="2.5" style="stroke:#181818;stroke-width:0.5;" width="107" x="283" y="391.6094"/><text fill="#000000" font-family="sans-serif" font-size="14" lengthAdjust="spacing" textLength="93" x="290" y="413.7168">:AddCommand</text><rect fill="#FFFFFF" height="306.6973" style="stroke:#181818;stroke-width:1.0;" width="10" x="50" y="76.9121"/><rect fill="#FFFFFF" height="33.6211" style="stroke:#181818;stroke-width:1.0;" width="10" x="184.5" y="100.9121"/><rect fill="#FFFFFF" height="177.4941" style="stroke:#181818;stroke-width:1.0;" width="10" x="184.5" y="165.8242"/><rect fill="#FFFFFF" height="25" style="stroke:#181818;stroke-width:1.0;" width="10" x="189.5" y="205.1152"/><rect fill="#FFFFFF" height="50.9121" style="stroke:#181818;stroke-width:1.0;" width="10" x="331.5" y="261.1152"/><polygon fill="#181818" points="38,72.9121,48,76.9121,38,80.9121,42,76.9121" style="stroke:#181818;stroke-width:1.0;"/><line style="stroke:#181818;stroke-width:1.0;" x1="0" x2="44" y1="76.9121" y2="76.9121"/><text fill="#000000" font-family="sans-serif" font-size="13" lengthAdjust="spacing" textLength="28" x="7" y="71.6494">input</text><polygon fill="#181818" points="103,86.9121,113,90.9121,103,94.9121,107,90.9121" style="stroke:#181818;stroke-width:1.0;"/><line style="stroke:#181818;stroke-width:1.0;" x1="60" x2="109" y1="90.9121" y2="90.9121"/><rect fill="#E2E2F0" height="32.6211" rx="2.5" ry="2.5" style="stroke:#181818;stroke-width:0.5;" width="149" x="115" y="84.9121"/><text fill="#000000" font-family="sans-serif" font-size="14" lengthAdjust="spacing" textLength="135" x="122" y="107.0195">:AddCommandParser</text><polygon fill="#181818" points="71,130.5332,61,134.5332,71,138.5332,67,134.5332" style="stroke:#181818;stroke-width:1.0;"/><line style="stroke:#181818;stroke-width:1.0;stroke-dasharray:2.0,2.0;" x1="65" x2="188.5" y1="134.5332" y2="134.5332"/><polygon fill="#181818" points="172.5,161.8242,182.5,165.8242,172.5,169.8242,176.5,165.8242" style="stroke:#181818;stroke-width:1.0;"/><line style="stroke:#181818;stroke-width:1.0;" x1="60" x2="178.5" y1="165.8242" y2="165.8242"/><text fill="#000000" font-family="sans-serif" font-size="13" lengthAdjust="spacing" textLength="68" x="67" y="160.5615">parse(input)</text><line style="stroke:#181818;stroke-width:1.0;" x1="194.5" x2="241.5" y1="192.1152" y2="192.1152"/><line style="stroke:#181818;stroke-width:1.0;" x1="241.5" x2="241.5" y1="192.1152" y2="205.1152"/><line style="stroke:#181818;stroke-width:1.0;" x1="200.5" x2="241.5" y1="205.1152" y2="205.1152"/><polygon fill="#181818" points="210.5,201.1152,200.5,205.1152,210.5,209.1152,206.5,205.1152" style="stroke:#181818;stroke-width:1.0;"/><text fill="#000000" font-family="sans-serif" font-size="13" lengthAdjust="spacing" textLength="123" x="206.5" y="186.8525">performChecks(input)</text><line style="stroke:#181818;stroke-width:1.0;" x1="199.5" x2="241.5" y1="229.1152" y2="229.1152"/><line style="stroke:#181818;stroke-width:1.0;" x1="241.5" x2="241.5" y1="229.1152" y2="242.1152"/><line style="stroke:#181818;stroke-width:1.0;" x1="194.5" x2="241.5" y1="242.1152" y2="242.1152"/><polygon fill="#181818" points="204.5,238.1152,194.5,242.1152,204.5,246.1152,200.5,242.1152" style="stroke:#181818;stroke-width:1.0;"/><polygon fill="#181818" points="271,247.1152,281,251.1152,271,255.1152,275,251.1152" style="stroke:#181818;stroke-width:1.0;"/><line style="stroke:#181818;stroke-width:1.0;" x1="194.5" x2="277" y1="251.1152" y2="251.1152"/><rect fill="#E2E2F0" height="32.6211" rx="2.5" ry="2.5" style="stroke:#181818;stroke-width:0.5;" width="107" x="283" y="245.1152"/><text fill="#000000" font-family="sans-serif" font-size="14" lengthAdjust="spacing" textLength="93" x="290" y="267.2227">:AddCommand</text><polygon fill="#181818" points="205.5,308.0273,195.5,312.0273,205.5,316.0273,201.5,312.0273" style="stroke:#181818;stroke-width:1.0;"/><line style="stroke:#181818;stroke-width:1.0;stroke-dasharray:2.0,2.0;" x1="199.5" x2="335.5" y1="312.0273" y2="312.0273"/><text fill="#000000" font-family="sans-serif" font-size="13" lengthAdjust="spacing" textLength="7" x="211.5" y="306.7646">a</text><polygon fill="#181818" points="71,339.3184,61,343.3184,71,347.3184,67,343.3184" style="stroke:#181818;stroke-width:1.0;"/><line style="stroke:#181818;stroke-width:1.0;stroke-dasharray:2.0,2.0;" x1="65" x2="188.5" y1="343.3184" y2="343.3184"/><text fill="#000000" font-family="sans-serif" font-size="13" lengthAdjust="spacing" textLength="7" x="77" y="338.0557">a</text><polygon fill="#181818" points="11,370.6094,1,374.6094,11,378.6094,7,374.6094" style="stroke:#181818;stroke-width:1.0;"/><line style="stroke:#181818;stroke-width:1.0;stroke-dasharray:2.0,2.0;" x1="5" x2="49" y1="374.6094" y2="374.6094"/><text fill="#000000" font-family="sans-serif" font-size="13" lengthAdjust="spacing" textLength="7" x="17" y="369.3467">a</text><!--SRC=[hL512i8m4BplAq9FUiW7YWXI18z-OPj43DeqR5FHtviMbJP9MmLlONPcTcPJrdUmI4uBRT4ubkLxu-XnG2ElYZA63Hi20NSdPL5NbPyTaPeNFmGdDG4Rb96bZmDyEzh9SgQDRHsWSFg6JeqJWI3LWT7QaOVtZ0WVlsW28S9u40gacf4lhVQLRFTOzSNMloL9soawrLGLPoKkpPzivpj6Pr_mJAKPvkXFd6Y6wHXV_D6q-DrXmtciU080]--></g></svg>